<?xml version="1.0" encoding="UTF-8"?><svg id="Layer_1" xmlns="http://www.w3.org/2000/svg" viewBox="0 0 642.35 434.91"><defs><style>.cls-1{fill:#ffec37;opacity:.14;}.cls-1,.cls-2,.cls-3,.cls-4,.cls-5{stroke-width:0px;}.cls-2{fill:#f8962f;fill-rule:evenodd;}.cls-3{fill:#4a4b4c;}.cls-4{fill:#e36f26;}.cls-5{fill:#fff;}</style></defs><g id="Vivid.JS"><g id="Vivid-Icons"><g id="Icons"><g id="map-marker"><path id="Shape" class="cls-2" d="M454.06,11.74c89.04,32.82,137.28,124.39,107.74,204.53-48.24,130.86-260.56,210.04-260.56,210.04,0,0-110.55-196.89-61.89-328.91,29.54-80.14,125.67-118.49,214.71-85.67Z"/><circle id="Oval" class="cls-4" cx="394.63" cy="172.97" r="85.92"/></g></g></g></g><polygon class="cls-3" points="0 434.91 35.29 386.68 56.47 374.91 65.88 353.74 100 359.62 122.35 312.56 154.12 325.5 190.59 290.21 205.88 299.62 218.82 290.21 232.94 310.21 265.88 221.97 323.53 153.74 329.41 174.91 390.59 197.27 404.71 217.27 420 189.03 472.94 229.03 514.12 306.68 529.41 294.32 562.35 331.38 575.29 371.38 602.35 384.32 611.76 373.74 642.35 434.91 0 434.91"/><polygon class="cls-5" points="105.88 378.44 122.35 345.5 145.88 345.5 178.82 324.32 167.06 357.27 105.88 378.44"/><polygon class="cls-5" points="262.35 305.5 281.18 231.38 321.18 185.5 345.88 207.85 337.65 245.5 308.37 261.97 262.35 305.5"/><polygon class="cls-5" points="429.41 234.91 410.59 250.21 410.59 285.5 489.41 314.91 463.53 266.68 429.41 234.91"/><path class="cls-1" d="M243.31,282.75c21.87,79.67,57.92,143.89,57.92,143.89,0,0,127.59-47.59,207.42-129.94l-35.72-67.35-52.94-40-15.29,28.24-14.12-20-61.18-22.35-5.88-21.18-57.65,68.24-22.57,60.46Z"/></svg>