<?xml version="1.0" ?><!DOCTYPE svg  PUBLIC '-//W3C//DTD SVG 1.1//EN'
  'http://www.w3.org/Graphics/SVG/1.1/DTD/svg11.dtd'>
<svg enable-background="new 0 0 48 48" id="Layer_1" version="1.1" viewBox="0 0 48 48" xml:space="preserve"
     xmlns="http://www.w3.org/2000/svg" xmlns:xlink="http://www.w3.org/1999/xlink"><circle cx="24" cy="24" fill="#4B89DC" r="23"/>
  <g id="icon"><g><path d="M22.203,22.285    c-0.046,1.383-0.583,3.629-1.579,5.19c-0.153,0.24-0.444,0.343-0.709,0.253c-0.806-0.273-1.727-0.444-2.447-0.466    c-0.669-0.02-1.486,0.049-2.222,0.208c-0.306,0.066-0.609-0.113-0.714-0.418c-0.301-0.875-0.36-2.235-0.29-4.341    c0.115-3.464,2.636-6.199,4.773-6.134C21.153,16.642,22.318,18.82,22.203,22.285z M14.602,32.643    c-0.057,1.718,0.886,3.832,3.054,3.898c1.756,0.053,2.824-0.822,2.898-3.025c0.12-3.628-0.521-2.783-2.799-2.852    C15.542,30.596,14.708,29.447,14.602,32.643z" fill="none" stroke="#FFFFFF" stroke-linecap="round" stroke-linejoin="round" stroke-miterlimit="1"/><path
    d="M30.611,11.625    c2.061,0.605,3.718,4.006,2.873,7.354c-0.514,2.036-0.945,3.317-1.474,4.06c-0.184,0.259-0.523,0.336-0.798,0.177    c-0.66-0.382-1.422-0.703-2.067-0.893c-0.694-0.204-1.622-0.327-2.468-0.318c-0.278,0.003-0.528-0.186-0.608-0.463    c-0.522-1.803-0.416-4.118-0.079-5.455C26.835,12.74,28.55,11.021,30.611,11.625z M27.935,25.486    c-2.196-0.645-2.577-1.653-3.462,1.854c-0.537,2.129,0.243,3.299,1.937,3.796c2.091,0.614,3.575-1.114,3.993-2.774    C31.183,25.274,30.069,26.112,27.935,25.486z"
    fill="none" stroke="#FFFFFF" stroke-linecap="round" stroke-linejoin="round" stroke-miterlimit="1"/></g></g></svg>
