<?xml version="1.0" ?><svg data-name="Layer 1" id="Layer_1" viewBox="0 0 512 512" xmlns="http://www.w3.org/2000/svg"><polygon points="404.18 102.99 436.48 257.52 351.18 210.86 404.18 102.99" style="fill:#616d77"/><polygon points="436.48 257.52 419.53 397.2 351.18 210.86 436.48 257.52" style="fill:#505c63"/><polygon points="351.18 210.86 419.53 397.2 228.17 349.1 178.03 285.25 351.18 210.86" style="fill:#798795"/><polygon points="419.53 397.2 367.25 483.09 224.59 439.98 228.17 349.1 419.53 397.2" style="fill:#616d77"/><polygon points="404.18 102.99 351.18 210.86 293.76 102.62 293.98 11 404.18 102.99" style="fill:#8e99a3"/><polygon points="367.25 483.09 203.39 501 108.34 453.4 224.59 439.98 367.25 483.09" style="fill:#505c63"/><polygon points="293.76 102.62 351.18 210.86 178.03 285.25 182.46 196.24 293.76 102.62" style="fill:#616d77"/><polygon points="293.98 11 293.76 102.62 200.58 80.29 293.98 11" style="fill:#93a1ad"/><polygon points="293.76 102.62 182.46 196.24 108.64 119.28 200.58 80.29 293.76 102.62" style="fill:#798795"/><polygon points="178.03 285.25 228.17 349.1 224.59 439.98 108.34 453.4 75.52 334.85 178.03 285.25" style="fill:#8e99a3"/><polygon points="108.64 119.28 182.46 196.24 178.03 285.25 75.52 334.85 108.64 119.28" style="fill:#93a1ad"/><polygon points="155.163 447.995 108.34 453.4 203.39 501 243.495 496.617 155.163 447.995 155.163 447.995" style="fill:#414a4f"/><polygon points="293.98 11 200.58 80.29 241.567 90.112 293.88 52.766 293.98 11" style="fill:#748089"/><polygon points="137.306 149.166 137.306 149.166 108.64 119.28 75.52 334.85 117.933 314.328 117.933 314.328 137.306 149.166" style="fill:#79848c"/><polygon points="241.567 90.112 200.58 80.29 108.64 119.28 137.306 149.166 241.567 90.112 241.567 90.112" style="fill:#5e6a75"/><polygon points="75.52 334.85 108.34 453.4 155.163 447.995 117.933 314.328 75.52 334.85" style="fill:#747c82"/><path d="M121.559,177.414a6.078,6.078,0,0,1-.991-.082,6,6,0,0,1-4.935-6.9l.6-3.6a6,6,0,0,1,11.838,1.965l-.6,3.6A6,6,0,0,1,121.559,177.414Z" style="fill:#f4f8fc"/><path d="M107.276,263.452a6.063,6.063,0,0,1-.989-.082,6,6,0,0,1-4.936-6.9l11.11-66.928a6,6,0,0,1,11.838,1.964l-11.111,66.929A6,6,0,0,1,107.276,263.452Z" style="fill:#f4f8fc"/></svg>