<?xml version="1.0" ?>
<svg enable-background="new 0 0 50 50" height="50px" id="Layer_1" version="1.1" viewBox="0 0 50 50" width="50px"
     xml:space="preserve" xmlns="http://www.w3.org/2000/svg"><path d="M42.6,26.1C40.8,16.9,32.7,10,23,10c-3.7,0-7.1,1-10.1,2.7c-4.8,2.8-8.4,7.6-9.5,13.3C1.5,26.4,0,28,0,30  c0,2,1.5,3.6,3.4,3.9C5.2,43.1,13.3,50,23,50s17.8-6.9,19.6-16.1C44.5,33.6,46,32,46,30C46,28,44.5,26.4,42.6,26.1z" fill="#F9C791"/><path d="M42.6,26c-1.3-6.3-5.6-11.9-12.1-14.6c-0.2-0.1-0.3-0.1-0.5-0.2c6.1,2.9,9.9,8.7,10.6,15  c0.2,2.3,0,4.8-0.7,7.1c-0.2,0.5-0.4,1.1-0.6,1.6c-3.8,9.5-14.7,14-24.1,10.2C10,43.1,6.3,38.9,4.7,33.9c-0.9-2.5-1.2-5.2-0.9-7.9  c0.1-1.4,0.4-2.7,0.9-4.1c-0.1,0.2-0.2,0.3-0.2,0.5C4,23.6,3.6,24.8,3.4,26C1.5,26.3,0,28,0,30s1.5,3.7,3.4,4  C4.7,40.3,9,45.9,15.5,48.5c10.2,4.2,21.9-0.7,26.1-11c0.5-1.2,0.8-2.4,1.1-3.6c1.9-0.3,3.4-2,3.4-4S44.5,26.3,42.6,26z" opacity="0.1"/><circle cx="23" cy="3" fill="#F56E5F" r="3"/><path d="M48,23h-8v-4h8c1.1,0,2,0.9,2,2v0C50,22.1,49.1,23,48,23z" fill="#F56E5F"/><path d="M48,23h-8v-4h8c1.1,0,2,0.9,2,2v0C50,22.1,49.1,23,48,23z" opacity="0.1"/><ellipse cx="15" cy="10.8" fill="#FFDF57" rx="5.3" ry="3.9"/><ellipse cx="15" cy="10.8" opacity="0.1" rx="5.3" ry="3.9"/><path d="M10,14.6c0,0-2.4,0.5-5.5-1.6c0.5-0.7,1.1-1.3,1.8-1.9C6.4,11.1,8,14,10,14.6z" opacity="0.1"/><path d="M23,14.1c-0.5-0.1-7.2-0.6-10.7-5c1,0.6,2.5,0.7,4.1,0.8C16.4,9.9,18.4,12.9,23,14.1z" opacity="0.1"/><rect fill="#FFFFFF" height="4" width="16" x="15" y="19"/><path d="M2,23c0,0,0,7,3,9c0,0,0-5,2-7s6-2,6-5" fill="#FFDF57"/><rect fill="#FFDF57" height="5" width="5" x="26" y="14"/><path d="M44,23c0,0,0,7-3,9c0,0,0-5-2-7s-6-2-6-5" fill="#FFDF57"/><path d="M44,23c0,0,0,7-3,9c0,0,0-3.7-1.2-6c0.2-1.7,0.2-3,0.2-3l-6.8-1.8C33.1,20.8,33,20.5,33,20L44,23z" opacity="0.1"/><path d="M44,23c0-11.6-9.4-21-21-21S2,11.4,2,23h13v-5c0-2.2,1.8-4,4-4h8c2.2,0,4,1.8,4,4v5H44z" fill="#F56E5F"/><path d="M15,19c0,0-4-5-2-8c0,0,3,3,6,3c0,0-1-1,0-3c0,0,2,3,7,3v5H15z" fill="#FFDF57"/><path d="M44,23h-4c0-10.9-8.3-19.9-19-20.9C21.7,2,22.3,2,23,2C34.6,2,44,11.4,44,23z" opacity="0.1"/><g><path d="M18.4,27.1c0.7,1.1,0.7,2.7,0,3.8C17.6,32.2,16.3,33,15,33s-2.6-0.8-3.4-2.1c-0.7-1.1-0.7-2.7,0-3.8   c0.9-1.3,2.1-2.1,3.4-2.1S17.6,25.8,18.4,27.1z" fill="#FFFFFF"/><circle cx="15" cy="29" fill="#515151" opacity="0.8" r="2"/><path d="M34.4,27.1c0.7,1.1,0.7,2.7,0,3.8C33.6,32.2,32.3,33,31,33c-1.3,0-2.6-0.8-3.4-2.1c-0.7-1.1-0.7-2.7,0-3.8   c0.9-1.3,2.1-2.1,3.4-2.1C32.3,25,33.6,25.8,34.4,27.1z" fill="#FFFFFF"/><circle cx="31" cy="29" fill="#515151" opacity="0.8" r="2"/></g><g><path d="M28.8,36.5c0,0.5-0.1,1-0.3,1.5c-0.4,1-1,2-1.9,2.6c0,0-0.1,0.1-0.1,0.1   c-0.3,0.2-0.6,0.4-1,0.6c-0.8,0.4-1.6,0.6-2.6,0.6c-0.9,0-1.8-0.2-2.6-0.6c-0.4-0.2-0.7-0.4-1-0.6c-0.1,0-0.1-0.1-0.1-0.1   c-0.8-0.7-1.5-1.6-1.9-2.6c-0.2-0.5-0.3-1-0.3-1.5c0-0.2,0.2-0.5,0.4-0.5h10.8C28.6,36,28.8,36.2,28.8,36.5z" fill="#515151" opacity="0.75"/><path d="M28.8,36.5c0,0.5-0.1,1.5-0.3,1.5H17.4c-0.2,0-0.3-1-0.3-1.5c0-0.2,0.2-0.5,0.4-0.5h10.8   C28.6,36,28.8,36.3,28.8,36.5z" fill="#FFFFFF"/><path d="M26.5,40.7c-0.3,0.2-0.6,0.4-1,0.6c-0.8,0.4-1.6,0.6-2.6,0.6c-0.9,0-1.8-0.2-2.6-0.6   c-0.4-0.2-0.7-0.4-1-0.6c1.1-0.5,2.3-0.7,3.5-0.7C24.2,40,25.4,40.2,26.5,40.7z" fill="#F56E5F"/></g></svg>
