<?xml version="1.0" ?><!DOCTYPE svg  PUBLIC '-//W3C//DTD SVG 1.1//EN'
  'http://www.w3.org/Graphics/SVG/1.1/DTD/svg11.dtd'>
<svg enable-background="new 0 0 64 64" height="64px" id="Layer_1" version="1.1" viewBox="0 0 64 64" width="64px"
     xml:space="preserve" xmlns="http://www.w3.org/2000/svg"><g id="_x31_0"><g><path d="M32.166,0.291c-18.05,0.14-31.98,14.31-31.84,32.39c0.13,17.23,14.57,31.28,31.89,31.26    c17.45-0.01,32.06-14.49,31.78-32.51C63.726,14.361,49.356,0.151,32.166,0.291z M37.286,44.891c-1.97,3.15-4.19,6.06-8.22,6.74    c-3.41,0.58-5.79-1.88-4.84-5.21c1.61-5.61,3.34-11.19,5-16.79c0.22-0.75,0.33-1.53,0.48-2.3c-0.24-0.14-0.48-0.27-0.73-0.41    c-1.58,1.71-3.17,3.42-4.75,5.13c-0.15-0.03-0.3-0.06-0.45-0.09c0.23-0.95,0.21-2.08,0.74-2.83c1.69-2.43,3.89-4.35,6.63-5.58    c1.69-0.75,3.36-0.85,4.83,0.46c1.46,1.3,1.59,2.93,1.04,4.73c-1.71,5.64-3.4,11.29-5.09,16.93c-0.16,0.52-0.23,1.05-0.41,1.94    c3.01-0.74,3.65-3.58,5.92-5.11C37.396,43.451,37.616,44.341,37.286,44.891z M36.496,20.551c-2.28,0-4.01-1.73-4-4.02    c0.01-2.26,1.77-4.02,4.03-4.02c2.23,0,4.03,1.81,4.02,4.04C40.536,18.831,38.796,20.551,36.496,20.551z" fill="#4B89DC"/></g></g></svg>
