<?xml version="1.0" ?><!DOCTYPE svg  PUBLIC '-//W3C//DTD SVG 1.1//EN'  'http://www.w3.org/Graphics/SVG/1.1/DTD/svg11.dtd'>
<svg height="512px" style="enable-background:new 0 0 512 512;" version="1.1" viewBox="0 0 512 512" width="512px"
     xml:space="preserve" xmlns="http://www.w3.org/2000/svg"><g id="forbidden_prohibited_foot_footsteps_footprints"><g><path d="M256,0C114.615,0,0,114.615,0,256s114.615,256,256,256s256-114.615,256-256S397.385,0,256,0z     M407.777,400.73c-72.886,76.436-189.685,85.782-273.266,26.234l45.986-45.985c-10.507-5.163-29.031-18.715-34.66-59.679    l-58.879,58.88c-59.222-80.419-54.042-194.132,17.264-268.911c73.669-77.256,192.204-85.988,275.951-24.306l-56.587,56.587    c44.279,5.08,52.534,34.659,55.188,39.15l48.197-48.197C484.131,214.754,478.295,326.778,407.777,400.73z" style="fill:#E2001A;"/><g><g><path d="M228.484,281.637l-68.349,12.623c2.482,47.736,16.332,87.715,60.901,70.385      C253.321,352.089,224.895,306.602,228.484,281.637z"/><path d="M200.076,101.306c-35.533-13.758-81.324,41.933-66.338,114.784c4.666,22.684,20.499,44.252,25.094,66.772l73.748-13.62      C256.555,164.92,233.123,114.103,200.076,101.306z"/></g><g><path d="M281.184,342.889l68.35,12.623c-2.482,47.736-16.332,87.716-60.902,70.385      C256.348,413.342,284.773,367.854,281.184,342.889z"/><path d="M309.592,162.559c35.534-13.759,81.324,41.932,66.338,114.783c-4.665,22.684-20.499,44.252-25.094,66.773      l-73.748-13.621C253.114,226.173,276.546,175.354,309.592,162.559z"/></g></g></g></g><g id="Capa_1"/></svg>
