<?xml version="1.0" ?><!DOCTYPE svg  PUBLIC '-//W3C//DTD SVG 1.1//EN'  'http://www.w3.org/Graphics/SVG/1.1/DTD/svg11.dtd'><svg enable-background="new 0 0 128 128" height="128px" id="Layer_1" version="1.1" viewBox="0 0 128 128" width="128px" xml:space="preserve" xmlns="http://www.w3.org/2000/svg" xmlns:xlink="http://www.w3.org/1999/xlink"><g><g><path d="M128,122c0,3.3-2.7,6-6,6H6c-3.299,0-6-2.7-6-6V6c0-3.3,2.701-6,6-6h116c3.3,0,6,2.7,6,6V122z" fill="#325AAA"/></g><path d="M102.205,39.857c-0.809-3.31-2.334-6.405-4.535-9.199c-2.209-2.802-5.385-5.167-9.443-7.027   c-4.053-1.856-9.344-2.798-15.723-2.798H33.092c-0.276,0-0.5,0.224-0.5,0.5v89.334c0,0.276,0.224,0.5,0.5,0.5h15.64   c0.276,0,0.5-0.224,0.5-0.5V76.885h23.272c6.385,0,11.672-0.92,15.719-2.734c4.059-1.812,7.234-4.156,9.447-6.965   c2.201-2.793,3.727-5.869,4.535-9.136c0.799-3.235,1.203-6.285,1.203-9.065C103.408,46.206,103.004,43.135,102.205,39.857z    M49.232,34.595h22.647c2.035,0,3.977,0.206,5.77,0.613c1.754,0.4,3.328,1.147,4.682,2.219c1.346,1.069,2.432,2.541,3.229,4.375   c0.803,1.85,1.209,4.225,1.209,7.058c0,2.741-0.465,5.043-1.383,6.842c-0.92,1.797-2.133,3.254-3.604,4.328   c-1.488,1.085-3.139,1.879-4.904,2.361c-1.785,0.487-3.553,0.733-5.248,0.733H49.232V34.595z" fill="#FFFFFF"/></g></svg>