<?xml version="1.0" ?><svg id="Layer_1" style="enable-background:new 0 0 38 38;" version="1.1" viewBox="0 0 38 38" xml:space="preserve" xmlns="http://www.w3.org/2000/svg" xmlns:xlink="http://www.w3.org/1999/xlink"><style type="text/css">
	.st0{enable-background:new    ;}
	.st1{fill:#4F4C51;}
	.st2{fill:#656267;}
	.st3{fill:#DBDFE6;}
	.st4{fill:#767477;}
	.st5{fill:#7C7980;}
	.st6{opacity:0.4;fill:#FFFFFF;}
	.st7{fill:#34333A;}
	.st8{fill:#25242A;}
	.st9{fill:#FFFFFF;}
	.st10{fill:#434754;}
	.st11{fill:#72798A;}
	.st12{fill:#4E525F;}
	.st13{fill:#81899B;}
	.st14{fill:#626A78;}
	.st15{opacity:0.7;fill:#FFFFFF;}
	.st16{opacity:0.6;fill:#FFFFFF;}
	.st17{opacity:0.9;fill:#FFFFFF;}
	.st18{opacity:0.3;fill:#4F575F;}
	.st19{opacity:0.3;fill:#FFFFFF;}
	.st20{opacity:0.5;fill:#25242A;}
	.st21{opacity:0.5;fill:#656267;}
	.st22{opacity:0.3;fill:#25242A;}
	.st23{opacity:0.5;fill:#FFFFFF;}
	.st24{fill:#484C59;}
	.st25{fill:#5E626F;}
	.st26{fill:#595D6A;}
	.st27{fill:#292C35;}
	.st28{opacity:0.5;fill:#292C35;}
	.st29{opacity:0.4;fill:#181E1E;}
	.st30{opacity:0.6;fill:#292C35;}
	.st31{fill:#535764;}
	.st32{fill:#5A5443;}
	.st33{fill:#4C4638;}
	.st34{fill:#6D6455;}
	.st35{opacity:0.2;fill:#1E1E1C;}
	.st36{fill:#A99D8C;}
	.st37{fill:none;}
	.st38{fill:#282725;}
	.st39{opacity:0.5;fill:#1E1E1C;}
	.st40{fill:#1E1E1C;}
	.st41{fill:#CCD0D9;}
	.st42{opacity:0.2;fill:#25242A;}
	.st43{fill:#181E1E;}
	.st44{opacity:0.2;}
	.st45{opacity:0.1;}
	.st46{fill:#363A44;}
	.st47{fill:#2A2E3A;}
	.st48{fill:#2F343F;}
	.st49{opacity:0.7;fill:#1E1E1C;}
	.st50{opacity:0.3;fill:#1E1E1C;}
	.st51{opacity:0.6;fill:#1E1E1C;}
	.st52{fill:#4C3D2F;}
	.st53{fill:#5A4B3B;}
	.st54{fill:#302A20;}
	.st55{fill:#7B644B;}
	.st56{fill:#211E19;}
	.st57{opacity:0.99;}
	.st58{opacity:0.3;fill:#211E19;}
	.st59{opacity:0.2;fill:#FFFFFF;}
	.st60{opacity:0.4;fill:#1E1E1C;}
	.st61{opacity:0.2;fill:#211E19;}
	.st62{opacity:0.6;fill:#211E19;}
	.st63{fill:#897560;}
	.st64{fill:#68513C;}
	.st65{opacity:0.1;fill:#211E19;}
	.st66{opacity:0.5;fill:#434754;}
	.st67{fill:#535A67;}
	.st68{opacity:0.2;fill:#292C35;}
	.st69{opacity:0.4;fill:#211E19;}
	.st70{opacity:0.2;fill:#282725;}
	.st71{fill:#394452;}
	.st72{fill:#131F2B;}
	.st73{opacity:0.4;fill:#292C35;}
	.st74{opacity:0.4;fill:#25242A;}
	.st75{fill:#EBEEF4;}
	.st76{fill:#6B5A4B;}
	.st77{opacity:0.1;fill:#181E1E;}
	.st78{opacity:0.5;fill:#211E19;}
	.st79{opacity:0.3;fill:#292C35;}
	.st80{opacity:0.6;fill:#34333A;}
	.st81{fill:#BCC1CB;}
	.st82{opacity:0.7;fill:#34333A;}
	.st83{fill:#71747C;}
	.st84{opacity:0.7;fill:#292C35;}
	.st85{opacity:0.3;fill:#282725;}
	.st86{opacity:0.29;fill:#292C35;}
	.st87{fill:#A6ABB2;}
	.st88{opacity:0.4;fill:#34333A;}
	.st89{opacity:0.5;fill:#34333A;}
	.st90{opacity:0.3;fill:#131F2B;}
	.st91{fill:#39C988;}
	.st92{fill:#28AF6E;}
	.st93{opacity:0.6;fill:#25242A;}
	.st94{fill:#189453;}
	.st95{opacity:0.8;fill:#34333A;}
	.st96{opacity:0.4;}
	.st97{opacity:0.7;}
	.st98{fill:#8D98AA;}
</style><g id="_x33_9"><g><g><g><g><path class="st14" d="M14.24368,30.0658188c-1.4277058-0.5055752-2.8554115-1.0111523-4.2831192-1.5167274       c-0.8833742-0.3128185-1.7821741-0.5805244-2.662291-0.9027348c-0.7350192-0.2690887-1.6369224-0.5022278-2.0098457-1.260397       c-0.3514867-0.7145863-0.5218229-1.5625324-0.8085461-2.3111191c-0.3798003-0.9915943-0.7328134-1.9928837-0.9850099-3.0255089       c-0.7614827-3.1179123-0.5684404-6.3580265,0.066638-9.4807186c0.1032596-0.5077295,0.2180657-1.0130892,0.3425567-1.5160255       C3.9730387,9.7739286,4.0450583,9.496026,4.119791,9.2188568c0.0562115-0.2084751,0.2463951-0.5810184,0.2211771-0.7909336       C4.3582115,8.5714569,4.3247843,8.6604099,4.5277867,8.793314l8.1782627,4.9968252       C12.7060499,13.7901392,14.2436829,30.0658188,14.24368,30.0658188z"/></g><g><path class="st11" d="M26.2601337,10.0806513l-0.0605659-0.1421108       c-0.0432434,0.719595-0.1886921,1.3624983-0.5894718,1.8971357c-2.1632786,2.8858404-8.8559895,2.4855747-12.4497128,2.0926037       c-0.1974535-0.0203314-0.3465261-0.073946-0.4545364-0.1388912c0,0,1.5373487,16.275362,1.5373487,16.2754097       c0.0130949,0.1401596,0.4707165,0.1881618,0.5712318,0.1661339c0.2344313-0.0513992,0.4225817-0.2864418,0.6516085-0.3796482       c0.3013535-0.1226273,0.6432476,0.006815,0.9308739,0.0409222c0.3444424,0.0408039,0.6907253,0.0738583,1.0366974,0.108181       c0.6806812,0.0674973,1.3617687,0.1386757,2.0234928,0.2775192c0.8183289,0.1717319,1.6243629,0.446476,2.5000343,0.3875675       c0.755579-0.0508499,1.6356869-0.3362389,2.3581772-0.7081146c1.4137306-0.7276402,2.1097126-1.9048939,2.1737804-3.4376049       L26.2601337,10.0806513z"/></g><g><path class="st67" d="M25.6490822,28.9010963c-0.6347694,0.7853756-1.6145821,1.2719955-2.5765591,1.5517941       l1.9397678-11.4152145L25.6490822,28.9010963z"/><path class="st10" d="M25.6490822,28.9010963c-0.2312031,0.2860584-0.5094395,0.5388222-0.8327274,0.7582703       l0.1959362-10.6216908L25.6490822,28.9010963z"/></g><g><path class="st67" d="M20.2294941,30.4568138c-0.6149979-0.1410599-0.9058971-0.2301903-1.7516651-0.3409271       l1.253994-7.3789196L20.2294941,30.4568138z"/><path class="st10" d="M20.2294941,30.4568138c-0.213562-0.0489845-0.4251766-0.1018906-0.6367912-0.1489143       l0.1391201-7.5709324L20.2294941,30.4568138z"/></g><g><path class="st13" d="M21.1489735,6.1016006c0.7898064,0.0751033,1.6597271,0.2890921,2.2962303,0.7628021       c1.0152836,0.7562242,2.0290565,1.6874647,2.6806564,2.7782402c0.1098862,0.1839476,0.1562767,0.4001579,0.1270199,0.6124201       c-0.6179276,4.4831171-8.6008377,4.1643953-13.0925016,3.6732168       c-0.4876184-0.0500431,0.0760288,0.1451054-8.6319551-5.1335487c-0.1827869-0.1114883-0.2347484-0.2868652-0.1557922-0.484993       c0.0971766-0.2438488,0.358264-0.4509621,0.5855041-0.5846195c1.0133462-0.5963368,2.8856626-1.1364379,3.3531194-1.1523476       C19.548111,6.1194439,20.0978222,6.0016456,21.1489735,6.1016006z"/></g><path class="st14" d="M21.1268826,13.9139776c-1.4474964,1.5610657-2.9485531,3.1213388-4.5711823,4.5535421      c0.934618-1.4107265,1.957407-2.7548666,3.0115433-4.0754709c-3.1247196-0.7491713-5.2073193-1.402401-5.9505787-1.6125469      c2.0443201-1.0959291,4.9005299-2.5354967,7.0713234-3.3779287c-1.3149738,0.9905195-3.2459393,2.2339487-4.6515102,3.0781412      C17.7430706,12.9127493,19.4418411,13.394743,21.1268826,13.9139776z"/><path class="st67" d="M21.1268826,13.9139776c-1.1736526,1.2657366-2.3688545,2.5177679-3.630682,3.695344      c0.8307667-1.2108936,1.722271-2.3747396,2.6372871-3.5209589c-3.1177464-0.747551-5.1956778-1.3988905-5.9446821-1.6106091      c1.9602537-1.0321827,4.4321413-2.2740126,6.4991827-3.0761805c-1.3149738,0.9905195-3.2459393,2.2339487-4.6515102,3.0781412      C17.7430706,12.9127493,19.4418411,13.394743,21.1268826,13.9139776z"/><path class="st67" d="M15.6975136,29.8004341c-0.0783796,0.0039215-0.1547976,0.0195885-0.2312155,0.0509453      c-0.2292414,0.0940685-0.4173431,0.3272209-0.6524572,0.380127c-0.0999289,0.0215511-0.558423-0.0274334-0.570179-0.1665649      c-0.5349007-0.190052-1.0698013-0.3781414-1.6047134-0.5681934l0.0666227-15.7062111L15.6975136,29.8004341z"/><path class="st10" d="M14.2789288,30.1217709c-0.0215502-0.015667-0.0333061-0.0352554-0.0352669-0.0568295      c-0.5349007-0.190052-1.0698013-0.3781414-1.6047134-0.5681934l0.0666227-15.6337156h0.0254726      C14.886466,36.5032463,14.100152,28.2439232,14.2789288,30.1217709z"/><path class="st67" d="M10.9695845,8.4885302C9.6901188,8.7863321,8.3949862,8.992074,7.0939708,9.1605759      c0.8582425,1.1297045,1.2296824,1.6767035,1.5772796,2.159215c-0.8150868,0.1312618-1.6458521,0.2645082-2.4687843,0.3605146      c-0.0161109,0.5472736-0.0333381,1.0950079-0.1077623,1.8065453c-0.1665525-0.7230148-0.2880316-1.4558125-0.3879609-2.1905708      c0.566257-0.1645794,1.1364365-0.3134928,1.7085652-0.4545603C6.5279355,9.7315531,5.8898835,8.8590097,5.6479645,8.5394754      c2.0730028-0.2155485,4.1655941-0.3820896,6.2523146-0.2821598C11.5906973,8.3415785,11.2811155,8.4179716,10.9695845,8.4885302      z"/><path class="st10" d="M8.6712503,11.3197908c-0.8150868,0.1312618-1.6458521,0.2645082-2.4687843,0.3605146      c-0.0039229,0.1332474-0.0078335,0.26647-0.0117559,0.3997164c-0.0274339-0.1743851-0.0529065-0.3487711-0.0764179-0.5231562      c0.566257-0.1645794,1.1364245-0.3134928,1.7085657-0.4545841c-0.8867559-1.1093493-1.5190988-1.97435-1.767344-2.3022442      c1.6301866-0.168478,3.2721286-0.3076086,4.9140706-0.3115072C9.6901188,8.7863321,8.3949862,8.992074,7.0939708,9.1605759      C7.9522133,10.2902803,8.3236532,10.8372793,8.6712503,11.3197908z"/><g><path class="st67" d="M7.2840347,27.641243c-0.2939038-0.1077747-0.6132798-0.2096653-0.9150286-0.3409271l0.6642251-4.9101582       L7.2840347,27.641243z"/><path class="st10" d="M7.2840347,27.641243c-0.1038518-0.0392017-0.2116141-0.0764427-0.3213377-0.1136589l0.0705342-5.1374264       L7.2840347,27.641243z"/></g><g><path class="st67" d="M10.456234,28.7247486c-0.1645918-0.0587654-0.3311319-0.1175556-0.4957237-0.1763477       c-0.0156775-0.0058823-0.0293951-0.0097809-0.0450611-0.0156651c-0.3311319-0.1155949-0.6642246-0.227293-0.9973173-0.3350658       l1.1168356-7.3495255L10.456234,28.7247486z"/><path class="st10" d="M10.456234,28.7247486c-0.1645918-0.0587654-0.3311319-0.1175556-0.4957237-0.1763477       c-0.0156775-0.0058823-0.0293951-0.0097809-0.0450611-0.0156651l0.1195183-7.6845913L10.456234,28.7247486z"/></g><path class="st67" d="M23.7720146,7.5421453c-0.6239872,0.3878298-1.1458912,0.6315675-1.6086235,0.8621221      c-0.1002769-0.0624294-1.0453491-0.5883889-2.3316402-1.5302458c-0.9894733,0.1920133-1.9867897,0.346786-2.9939022,0.3801041      c1.0990982-0.4731369,2.0864716-0.7290111,3.1173439-0.9934072c0.3873825,0.280725,0.6232471,0.3680868,2.2650146,1.6831045      C22.731596,7.7890263,23.2449474,7.6479583,23.7720146,7.5421453z"/><path class="st14" d="M22.1927738,7.9222488l-0.0293827,0.0137291c-0.1004791-0.0625548-1.0479164-0.59025-2.3316402-1.5302691      c-0.3918705,0.0764418-0.7837429,0.1469517-1.1775742,0.2037807c0.5594769-0.1650362,1.070652-0.2896881,1.3010159-0.3487711      C20.41082,6.5814986,21.1242752,7.0349317,22.1927738,7.9222488z"/><path class="st9" d="M26.2094555,9.8228397l-3.052681-0.8542767l1.9907131-0.6054592      c0.2272797,0.242959,0.4349709,0.4918013,0.6211128,0.7426043C25.8844452,9.2636738,26.1454124,9.6365385,26.2094555,9.8228397z      "/><path class="st9" d="M9.0709667,6.7916961L6.6256814,7.0033221C6.920423,6.9065604,7.9826632,6.5742345,8.2911348,6.5742345      L9.0709667,6.7916961z"/><path class="st14" d="M25.7176552,9.0390968l-2.5608807-0.0705338l1.9907131-0.6054592      C25.3551788,8.5845366,25.5452309,8.8118048,25.7176552,9.0390968z"/><path class="st14" d="M9.0709667,6.7916961l-1.45189-0.084239c0.1703186-0.0461254,0.4824257-0.1332226,0.6720581-0.1332226      L9.0709667,6.7916961z"/><path class="st6" d="M18.4347286,14.1980743c-1.8829384,0.3370037-3.8285789,0.1665649-5.6997738-0.1861296      c-1.2853374-0.7915878-2.5569582-1.6086235-3.7776337-2.4981794c1.346077,0.6603022,2.6510029,1.4028826,3.938302,2.1690216      C14.4082527,13.9198608,16.6458359,14.2333536,18.4347286,14.1980743z"/></g><g><path class="st67" d="M8.7280064,15.5853252c-0.1342411,0.7003269-0.3644352,1.413763-0.7191324,2.1656418      c-0.5253482,0.0794983-1.0880437,0.1321526-1.6660838,0.1564369c-0.1336579,0.671833-0.3827639,1.5790882-0.685102,2.1966724      c-0.0526018-0.9358978-0.151372-2.1144161,0.0764885-2.8160419c0.5478745-0.0590019,1.0923171-0.1139641,1.6625371-0.1525459      C7.7744427,16.563303,8.1970215,16.0320587,8.7280064,15.5853252z"/><path class="st10" d="M8.3718052,16.8788834c-0.1096334,0.3010387-0.2306566,0.591692-0.3629313,0.8720837      c-0.5253482,0.0794983-1.0880437,0.1321526-1.6660838,0.1564369c-0.0747628,0.3757954-0.1646209,0.744997-0.2767091,1.0939274      c0.0064101-0.4810848,0.0316186-0.9378624,0.1402755-1.282753c0.5478745-0.0590019,1.0921798-0.11409,1.6625371-0.1525459      C8.0241032,17.3280106,8.1941128,17.0963612,8.3718052,16.8788834z"/></g></g><path class="st79" d="M26.4896412,26.5204716c-0.0655212,1.5726585-0.7967129,2.7275963-2.174881,3.4367199    c-0.7210407,0.372282-1.6027527,0.6583405-2.357111,0.707325c-0.8758278,0.060751-1.6830807-0.2155247-2.5001411-0.3859882    c-0.6622524-0.1391048-1.3441162-0.2116241-2.0240078-0.2782364c-0.3468094-0.0333176-0.691658-0.0666122-1.0365067-0.1077499    c-0.2880211-0.0352783-0.6289463-0.1646042-0.9306955-0.0411625c-0.2292414,0.0940685-0.4173431,0.3272209-0.6524572,0.380127    c-0.0999289,0.0215511-0.558423-0.0274334-0.570179-0.1665649c-1.4283667-0.5055046-2.854784-1.0110111-4.2831516-1.5165405    c-0.8836718-0.3115292-1.7830095-0.5799618-2.6627707-0.9012985c-0.7347589-0.2703915-1.6360583-0.5035439-2.0102901-1.2618389    c-0.1881022-0.3820648-0.3252597-0.8033066-0.4545722-1.2284966c0.2505989-0.4249802,0.7977142-0.5083008,1.2794538-0.5682182    c1.4812732-0.1782837,3.033093-0.335041,4.4261928,0.2018204c1.3785353,0.5289326,1.7527695,1.2726536,4.5359039,1.2324429    c1.4048662-0.021574,2.8077612-0.1939735,4.17735-0.5094509c0.3585644-0.0822792,0.7308483-0.1841698,1.0090733-0.4271278    c0.2743034-0.2370739,0.4232159-0.5838833,0.6034851-0.8993607c1.1889133-2.086998,4.4627914-3.317831,4.6926498-12.2831974    c0.3436775-0.4580793,0.5823421-0.9588995,0.6426754-1.9652405l0.0607395,0.1430292L26.4896412,26.5204716z"/></g><path class="st30" d="M26.3622913,27.4472675c-0.3866577,1.5762215-1.6016922,2.4883785-3.1467266,2.9625225   c-1.3969402,0.4660015-2.2039566,0.2309818-3.5444813-0.0842381l0.4682884-1.2579155   c0.5588055-1.7462254,0.7416077-5.5721436,3.1249619-5.4921646c0,0-0.3034954,1.0738297,0.6996937,1.6341782   c0.4418049,0.2509384,1.7170925,0.9700184,2.0044308,1.3813553C26.160471,26.8672829,26.2760792,27.1357136,26.3622913,27.4472675z   "/><g><g><g><path class="st67" d="M27.8710518,31.7830296c-4.7612152-0.956522-4.9777527-0.9076061-5.2498302-1.2366886      c-0.2093525-0.2532158-0.3137131-0.5560131-0.4854507-0.8220444c-0.2274876-0.3523922-0.4393921-0.7085171-0.5926151-1.0768394      c-0.5773945-1.3879585-0.2897263-2.8555012,0.2963638-4.2528572c0.0316124-0.0753689,0.1404934-0.2108974,0.1245537-0.2860184      c0.0018578,0.0087547,0.007185,0.0557747,0.0124645,0.0640869c0.0052605,0.0083294,0.0122528,0.0164356,0.0226688,0.024128      c0.0233231,0.021204,0.0466309,0.0298996,0.0760574,0.0411968l4.8038082,1.7167778      C26.8790722,25.954771,27.8710537,31.7830296,27.8710518,31.7830296z"/></g><g><path class="st11" d="M34.7711411,24.4954834l-0.0361824-0.0504456      c-0.0210838,0.2587318-0.1022797,0.4908943-0.3331795,0.6865959c-1.307354,1.1080761-5.5493088,0.9556103-7.2566452,0.8684502      c-0.0868454-0.0040932-0.1835041-0.0165195-0.2661858-0.0455799c0,0,0.9918137,5.8281479,0.9918137,5.8281651      c0.0084572,0.05019,0.2759171,0.0631142,0.3344765,0.0542603c0.1365757-0.0206604,0.2450657-0.1068077,0.3782425-0.1424255      c0.1752357-0.0468597,0.3756008-0.0036106,0.5437279,0.0059261c0.2013378,0.011404,0.4037075,0.02001,0.6059017,0.0290718      c0.3978062,0.0178223,0.7958717,0.0369606,1.1830235,0.0805721c0.478775,0.0539436,0.9509678,0.1449814,1.4618874,0.1155891      c0.4408493-0.0253696,0.9530487-0.1361084,1.3727226-0.2764091c0.3916397-0.1309261,0.6976318-0.3003902,0.9092407-0.510931      C34.869503,30.9298611,34.9850922,30.6825218,35,30.3947315L34.7711411,24.4954834z"/></g><g><path class="st67" d="M34.5233498,31.2575092c-0.1333313,0.1048698-0.2943192,0.1982288-0.4818001,0.2800503      c-0.090889,0.0401573-0.1875648,0.0768948-0.2911301,0.111639c-0.2230759,0.0746593-0.4714622,0.1405792-0.7224083,0.1896458      l1.0664368-4.1161652L34.5233498,31.2575092z"/><path class="st10" d="M34.5233498,31.2575092c-0.1333313,0.1048698-0.2943192,0.1982288-0.4818001,0.2800503      l0.0528984-3.8148804L34.5233498,31.2575092z"/></g><g><path class="st67" d="M31.3681316,31.8670254c-0.1249733-0.0155735-0.2488308-0.0325737-0.3726521-0.0474625      c-0.0263672-0.0030861-0.0527325-0.0061741-0.0791054-0.0092697c-0.1891479-0.0215816-0.3804836-0.0367889-0.5729256-0.0491619      l0.6894188-2.6607361L31.3681316,31.8670254z"/><path class="st10" d="M31.3681316,31.8670254c-0.1249733-0.0155735-0.2488308-0.0325737-0.3726521-0.0474625      l0.0373878-2.7191677L31.3681316,31.8670254z"/></g><g><path class="st13" d="M31.1881084,23.1127815c0.5839539-0.0181122,1.3832188,0.01898,1.9209156,0.2546215      c0.533329,0.2339211,1.1704941,0.5628109,1.5811882,0.9721069c0.0652199,0.0649986,0.0935555,0.1421776,0.0777054,0.2186527      c-0.3624611,1.7485237-5.8233414,1.5337887-7.6227856,1.4419212c-0.0872002-0.0040932-0.1838303-0.0166321-0.2661858-0.0455818      c-4.7846699-1.7223129-4.855917-1.6901608-4.9077969-1.7906742c-0.1718521-0.332962,1.9478493-0.7455425,2.3002338-0.758606      c0.1522484-0.0064487,7.2961769-0.3090477,6.8418522-0.2897987c0.008358-0.00033,0.0167046-0.0006485,0.0250359-0.0009537      c0.0083332-0.0003052,0.0166531-0.0005989,0.0249596-0.0008812      C31.1715374,23.113308,31.1798306,23.113039,31.1881084,23.1127815z"/></g><path class="st14" d="M31.7962894,25.9199314c-0.8527164,0.5854511-1.7134457,1.153923-2.642519,1.677702     c0.537508-0.5152321,1.1268806-1.0073891,1.7346916-1.491394c-1.828289-0.2394638-3.0501404-0.4546795-3.4835796-0.5228481     c1.1924858-0.4145012,2.8442192-0.9557724,4.1090336-1.2792168c-0.7702255,0.3719311-1.8973007,0.8383751-2.6979618,1.1488113     C29.8148537,25.5923691,30.8094711,25.7494011,31.7962894,25.9199314z"/><path class="st67" d="M31.7962894,25.9199314c-0.6779079,0.4654331-1.3684769,0.9261494-2.0983772,1.3607655     c0.4780312-0.4425163,0.9917984-0.8687172,1.5193939-1.2888088c-1.8245373-0.2389908-3.041357-0.4532185-3.4801273-0.5222073     c1.1583347-0.3957691,2.5847855-0.8606949,3.7767372-1.1655064c-0.7702255,0.3719311-1.8973007,0.8383751-2.6979618,1.1488113     C29.8148537,25.5923691,30.8094711,25.7494011,31.7962894,25.9199314z"/><path class="st67" d="M28.7183342,31.6740704c-0.2399464,0.0112591-0.3259945,0.1340485-0.5134354,0.1630707     c-0.058218,0.0086765-0.3261948-0.004591-0.3338642-0.0544262c-0.3134003-0.0631886-0.626791-0.1256733-0.9402008-0.1888618     l-0.0520401-5.6389351L28.7183342,31.6740704z"/><path class="st10" d="M27.8919544,31.802784c-0.0126724-0.0054207-0.0196495-0.0123425-0.0209198-0.0200691     c-0.3134003-0.0631886-0.626791-0.1256733-0.9402008-0.1888618l-0.0516205-5.6129093l0.0148735-0.0002403     C27.2421303,28.0113735,27.9358521,32.0588951,27.8919544,31.802784z"/><path class="st10" d="M23.575655,24.3456707c0.5083466,0.3980312,0.7251892,0.5882931,0.9333973,0.7602749     c-0.4751282,0.0547962-0.9594002,0.1104527-1.439312,0.152668c-0.0062885,0.1981983-0.0132809,0.3944283-0.0524578,0.649538     c-0.1014271-0.2579842-0.1765957-0.5199032-0.239193-0.7827301c0.3296547-0.064415,0.6616917-0.1232414,0.9949131-0.1792698     c-0.5242424-0.3899708-0.9008789-0.6964417-1.0451927-0.8098316c1.209074-0.096899,2.4298687-0.1763897,3.648777-0.1601677     C25.4670048,24.1434975,24.478447,24.2591057,23.575655,24.3456707z"/><path class="st27" d="M24.5090523,25.1059456c-0.4751282,0.0547962-0.9594002,0.1104527-1.439312,0.152668     c-0.0015182,0.0478706-0.0030308,0.0957317-0.004549,0.1436024c-0.0170269-0.0623436-0.0329094-0.1247063-0.0476456-0.1870861     c0.3296566-0.064415,0.6616859-0.1232414,0.9949131-0.1792793c-0.5238972-0.389698-0.8967152-0.6931686-1.0451927-0.8098297     c0.9508076-0.0758324,1.9086494-0.1412392,2.8672752-0.1581001c-0.7452927,0.1189537-1.5002632,0.2050095-2.2588863,0.27775     C24.0840015,24.7437019,24.3008442,24.9339638,24.5090523,25.1059456z"/><g><path class="st11" d="M23.7936268,30.978178c-0.1722202-0.0359211-0.3592777-0.0694923-0.5362129-0.1137714l0.3593769-1.7689323      L23.7936268,30.978178z"/><path class="st10" d="M23.7936268,30.978178c-0.0608616-0.0130959-0.1239948-0.0254498-0.1882706-0.037775l0.0114346-1.8449287      L23.7936268,30.978178z"/></g><g><path class="st11" d="M25.6519871,31.3372688c-0.2882843-0.0584297-0.5124454-0.1039104-0.9010715-0.1747303      l0.6095104-2.6488914L25.6519871,31.3372688z"/><path class="st10" d="M25.6519871,31.3372688c-0.0861797-0.0174675-0.1726074-0.0348511-0.3168488-0.0638371      l0.0252876-2.7597847L25.6519871,31.3372688z"/></g><path class="st79" d="M34.9991264,30.394125c-0.0137177,0.2880192-0.1293106,0.5349007-0.3389626,0.7445412     c-0.041153,0.0411625-0.0881767,0.0823021-0.1371574,0.1175804v0.0019608     c-0.1332359,0.1038513-0.2939072,0.197897-0.4819946,0.2801743c-0.0901375,0.0391788-0.186142,0.0764179-0.2899933,0.1116982     c-0.1822205,0.0607262-0.3801155,0.1155949-0.5838852,0.1586952c-0.0470238,0.0098057-0.0920944,0.0195885-0.1391182,0.0293941     c-0.1038399,0.0215511-0.2076912,0.0391788-0.3095703,0.052906c-0.0568275,0.0098076-0.1156082,0.015667-0.1724243,0.0215511     c-0.0568275,0.0058842-0.1136475,0.0097828-0.1685143,0.0137043c-0.137146,0.0078449-0.2743034,0.0058842-0.4075375,0     c-0.0587788-0.0019608-0.1195297-0.0078201-0.1783085-0.0117435c-0.0744553-0.0078449-0.1489124-0.0137043-0.2233562-0.0235119     c-0.0627022-0.0058823-0.1234417-0.0137272-0.1841812-0.0215492c-0.0058842,0-0.0098057-0.0019608-0.0156784-0.0019608     c-0.1254005-0.015667-0.2488422-0.0333176-0.372282-0.0470238c-0.0274334-0.0039215-0.0528946-0.0078449-0.080328-0.0098057     c-0.1881027-0.0215492-0.3801155-0.037241-0.5721283-0.0489845c-0.0744572-0.0058594-0.1489143-0.0097828-0.2233696-0.0137043     c-0.1293259-0.0058842-0.2586365-0.0117683-0.3879623-0.0176506c-0.201807-0.0097828-0.4036255-0.0176277-0.6054344-0.0293713     c-0.1645584-0.0092812-0.3693619-0.0521584-0.5427456-0.0058842c-0.2254868,0.0596657-0.2452736,0.1654606-0.5349007,0.1391068     c-0.0435944-0.0052376-0.088356-0.0095119-0.1312733-0.0195885c-0.0098057-0.0039234-0.0176392-0.007822-0.0254726-0.0117455     c-0.0137157-0.0058823-0.0195999-0.0117664-0.0215626-0.0196114c-1.4702168-0.2961082-2.7102795-0.5467625-3.1192913-0.6211014     c-1.9157505-0.3548279-2.0230751-0.3499241-2.3531895-0.9600887c0.0019608,0,0.0019608-0.0019627,0.0039215-0.0019627     c0.3594818-0.1976204,0.7196884-0.250824,1.1305542-0.2782364c2.2719669-0.1749306,2.365469,0.3407707,3.3896847,0.8915157     c0.2056923,0.1106071,0.5058002,0.234539,0.824892,0.2390366h0.015667c0.4547806,0,0.606308-0.2288837,0.8915043-0.356617     c0.3291836-0.1410675,0.7053757-0.0509205,1.0600185-0.092083c0.5629654-0.0692368,1.0360718-0.4682961,1.5929585-0.6073971     c0.6986008-0.1689129,1.7224426,0.1246967,1.9240913-1.3539219c0.0548553-0.3859863,0.0509453-0.7876644,0.1802559-1.1560001     c0.2190056-0.6291828,0.648838-0.853035,0.6661873-2.135704c0.4793472-0.2663097,0.624733-0.5253925,0.6563797-0.9052219     l0.0333061,0.0431004v0.0019608l0.0039215,0.0039234C34.8511581,26.5532589,35.0091286,30.6537781,34.9991264,30.394125z"/><path class="st23" d="M30.2261219,26.0472698c-1.0974026,0.13871-2.2343521,0.0958462-3.3288898-0.0131454     c-0.7550278-0.2720661-1.5021935-0.5533962-2.2200356-0.8612385c0.7897301,0.2243633,1.5559101,0.478651,2.3119354,0.7415619     C27.8736534,25.9853096,29.181881,26.0767784,30.2261219,26.0472698z"/></g></g><path class="st9" d="M34.5406456,24.2025623l-3.0566044-0.4271507l1.9926739-0.2370739   C33.8265724,23.7068195,34.2744637,23.9628544,34.5406456,24.2025623z"/><path class="st67" d="M33.9449921,23.7871799l-2.4609509-0.0117683l1.9926739-0.2370739   C33.6364021,23.6152382,33.7876434,23.6945972,33.9449921,23.7871799z"/></g></svg>