<?xml version="1.0" ?><svg viewBox="0 0 64 64" xmlns="http://www.w3.org/2000/svg" xmlns:xlink="http://www.w3.org/1999/xlink"><defs><linearGradient gradientUnits="userSpaceOnUse" id="linear-gradient" x1="30.5" x2="30.5" y1="3" y2="29"><stop offset="0" stop-color="#464646"/><stop offset="1" stop-color="#2f2f2f"/></linearGradient><linearGradient gradientUnits="userSpaceOnUse" id="linear-gradient-2" x1="18.95" x2="25.6" y1="18.93" y2="18.93"><stop offset="0" stop-color="#141414"/><stop offset="1" stop-color="#222"/></linearGradient><linearGradient id="linear-gradient-3" x1="23" x2="29.5" xlink:href="#linear-gradient-2" y1="22.98" y2="22.98"/><linearGradient id="linear-gradient-4" x1="38.5" x2="45" xlink:href="#linear-gradient-2" y1="17.86" y2="17.86"/><linearGradient id="linear-gradient-5" x1="34.18" x2="41" xlink:href="#linear-gradient-2" y1="22.79" y2="22.79"/><linearGradient id="linear-gradient-6" x1="28.51" x2="32" xlink:href="#linear-gradient-2" y1="6.89" y2="6.89"/><linearGradient id="linear-gradient-7" x1="37.67" x2="41" xlink:href="#linear-gradient-2" y1="9.45" y2="9.45"/><linearGradient gradientUnits="userSpaceOnUse" id="linear-gradient-8" x1="9" x2="18" y1="22" y2="22"><stop offset="0" stop-color="#ff2c51"/><stop offset="1" stop-color="#dd1300"/></linearGradient><linearGradient id="linear-gradient-9" x1="13" x2="19" xlink:href="#linear-gradient-8" y1="28" y2="28"/><linearGradient id="linear-gradient-10" x1="8" x2="14" xlink:href="#linear-gradient-8" y1="8.5" y2="8.5"/><linearGradient id="linear-gradient-11" x1="6" x2="12" xlink:href="#linear-gradient-8" y1="26.5" y2="26.5"/><linearGradient id="linear-gradient-12" x2="13" xlink:href="#linear-gradient-8" y1="33" y2="33"/><linearGradient id="linear-gradient-13" x1="5" x2="11" xlink:href="#linear-gradient-8" y1="16.5" y2="16.5"/><linearGradient id="linear-gradient-14" x1="46" x2="55" xlink:href="#linear-gradient-8"/><linearGradient id="linear-gradient-15" x1="45.01" x2="51" xlink:href="#linear-gradient-8" y1="28" y2="28"/><linearGradient id="linear-gradient-16" x1="50" x2="56" xlink:href="#linear-gradient-8" y1="8.5" y2="8.5"/><linearGradient id="linear-gradient-17" x1="52" x2="58" xlink:href="#linear-gradient-8" y1="26.5" y2="26.5"/><linearGradient id="linear-gradient-18" x1="51" x2="55" xlink:href="#linear-gradient-8" y1="33" y2="33"/><linearGradient id="linear-gradient-19" x1="53" x2="59" xlink:href="#linear-gradient-8" y1="16.5" y2="16.5"/><linearGradient gradientUnits="userSpaceOnUse" id="linear-gradient-20" x1="32" x2="32" y1="23" y2="61"><stop offset="0" stop-color="#a84122"/><stop offset="1" stop-color="#66321d"/></linearGradient><linearGradient id="linear-gradient-21" x1="30.26" x2="30.26" xlink:href="#linear-gradient-8" y1="23" y2="61"/></defs><title/><g data-name="Layer 2" id="Layer_2"><path d="M46,11.5A6.51,6.51,0,0,0,39.5,5a6.63,6.63,0,0,0-1.83.26,6,6,0,0,0-9.17-.21A5.93,5.93,0,0,0,24,3a6,6,0,0,0-6,6,3,3,0,0,0,0,.42,5,5,0,0,0,1.06,9.5,5,5,0,0,0,3.92,4v2.3a1,1,0,0,0,.67.94l8,2.8a.94.94,0,0,0,.66,0l8-2.8A1,1,0,0,0,41,25.2V22.9A5,5,0,0,0,45,18a4.9,4.9,0,0,0-.56-2.28A6.51,6.51,0,0,0,46,11.5Z" style="fill:url(#linear-gradient)"/><path d="M25.37,18.49A6.94,6.94,0,0,1,20,21h0a5.09,5.09,0,0,1-.92-2.08l-.13,0A5.27,5.27,0,0,0,20,19a5,5,0,0,0,3.83-1.79,1,1,0,0,1,1.54,1.28Z" style="fill:url(#linear-gradient-2)"/><path d="M29.25,22.62A7,7,0,0,1,24,25a6.63,6.63,0,0,1-1-.07v-2a4.78,4.78,0,0,0,1,.1,5,5,0,0,0,3.75-1.7,1,1,0,0,1,1.41-.09A1,1,0,0,1,29.25,22.62Z" style="fill:url(#linear-gradient-3)"/><path d="M45,18a8.51,8.51,0,0,1-5.5,2,1,1,0,0,1,0-2,6.48,6.48,0,0,0,4.94-2.28A4.82,4.82,0,0,1,45,18Z" style="fill:url(#linear-gradient-4)"/><path d="M41,22.9v2A6.63,6.63,0,0,1,40,25a7.07,7.07,0,0,1-5.62-2.82A1,1,0,0,1,36,21a5,5,0,0,0,4,2A4.78,4.78,0,0,0,41,22.9Z" style="fill:url(#linear-gradient-5)"/><path d="M32,9a1,1,0,0,1-2,0,6,6,0,0,0-1.49-4,5.83,5.83,0,0,1,1.54-1.26A7.92,7.92,0,0,1,32,9Z" style="fill:url(#linear-gradient-6)"/><path d="M41,9a8,8,0,0,1-1.34,4.44,1,1,0,0,1-1.39.28A1,1,0,0,1,38,12.33,6,6,0,0,0,39,9a5.91,5.91,0,0,0-1.33-3.74A6.63,6.63,0,0,1,39.5,5a3,3,0,0,1,.43,0A7.93,7.93,0,0,1,41,9Z" style="fill:url(#linear-gradient-7)"/><path d="M9,21a1,1,0,0,0,1,1c2.72,0,6.52,1.88,6.55,1.89A.93.93,0,0,0,17,24a1,1,0,0,0,.89-.55,1,1,0,0,0-.44-1.34C17.28,22,13.2,20,10,20A1,1,0,0,0,9,21Z" style="fill:url(#linear-gradient-8)"/><path d="M18,26a7.23,7.23,0,0,0-4.71,2.29,1,1,0,0,0,0,1.42,1,1,0,0,0,1.42,0A5.25,5.25,0,0,1,18,28a1,1,0,0,0,0-2Z" style="fill:url(#linear-gradient-9)"/><path d="M8.68,8a6,6,0,0,1,3.43,2.5A1,1,0,0,0,13,11a.93.93,0,0,0,.45-.11,1,1,0,0,0,.44-1.34,7.9,7.9,0,0,0-4.57-3.5A1,1,0,1,0,8.68,8Z" style="fill:url(#linear-gradient-10)"/><path d="M12,26a1,1,0,0,0-1-1,10.9,10.9,0,0,0-4.45,1.11,1,1,0,0,0-.44,1.34A1,1,0,0,0,7,28a.93.93,0,0,0,.45-.11A9.08,9.08,0,0,1,11,27,1,1,0,0,0,12,26Z" style="fill:url(#linear-gradient-11)"/><path d="M11.29,31.29l-2,2a1,1,0,0,0,0,1.42,1,1,0,0,0,1.42,0l2-2a1,1,0,0,0-1.42-1.42Z" style="fill:url(#linear-gradient-12)"/><path d="M10,18a1,1,0,0,0,.24-2l-4-1A1,1,0,1,0,5.76,17l4,1A1,1,0,0,0,10,18Z" style="fill:url(#linear-gradient-13)"/><path d="M47,24a.93.93,0,0,0,.45-.11S51.27,22,54,22a1,1,0,0,0,0-2c-3.2,0-7.28,2-7.45,2.11a1,1,0,0,0-.44,1.34A1,1,0,0,0,47,24Z" style="fill:url(#linear-gradient-14)"/><path d="M50.71,28.29A7.23,7.23,0,0,0,46,26a1,1,0,0,0,0,2,5.25,5.25,0,0,1,3.3,1.71,1,1,0,0,0,1.42,0A1,1,0,0,0,50.71,28.29Z" style="fill:url(#linear-gradient-15)"/><path d="M50.55,10.89A1,1,0,0,0,51,11a1,1,0,0,0,.89-.53A6,6,0,0,1,55.32,8a1,1,0,0,0-.64-1.9,7.9,7.9,0,0,0-4.57,3.5A1,1,0,0,0,50.55,10.89Z" style="fill:url(#linear-gradient-16)"/><path d="M57.45,26.11A10.9,10.9,0,0,0,53,25a1,1,0,0,0,0,2,9.08,9.08,0,0,1,3.55.89A.93.93,0,0,0,57,28a1,1,0,0,0,.89-.55A1,1,0,0,0,57.45,26.11Z" style="fill:url(#linear-gradient-17)"/><path d="M52.71,31.29a1,1,0,0,0-1.42,1.42l2,2a1,1,0,0,0,1.42,0,1,1,0,0,0,0-1.42Z" style="fill:url(#linear-gradient-18)"/><path d="M59,15.76A1,1,0,0,0,57.76,15l-4,1A1,1,0,0,0,54,18a1,1,0,0,0,.24,0l4-1A1,1,0,0,0,59,15.76Z" style="fill:url(#linear-gradient-19)"/><path d="M60.67,59.26c-.1-.09-9.85-8.93-12.73-16.61a146.86,146.86,0,0,1-5-16.87,1,1,0,0,0-.61-.71l-5-2a1,1,0,0,0-1,.15L32,26.72l-4.38-3.5a1,1,0,0,0-1-.15l-5,2a1,1,0,0,0-.61.71,146.86,146.86,0,0,1-5,16.87C13.19,50.32,3.43,59.17,3.33,59.26a1,1,0,0,0-.26,1.1A1,1,0,0,0,4,61H60a1,1,0,0,0,.93-.64A1,1,0,0,0,60.67,59.26Z" style="fill:url(#linear-gradient-20)"/><path d="M23,39c1-2,2-7,4-7s3,1,6,1,2-3,4-3,3.62,1.69,5.81-.65l.76-1.08c-.38-1.52-.59-2.46-.59-2.49a1,1,0,0,0-.61-.71l-5-2a1,1,0,0,0-1,.15L32,26.72l-4.38-3.5a1,1,0,0,0-1-.15l-5,2a1,1,0,0,0-.61.71C21,25.86,19.4,33,17,40.17l1,.24S22,41,23,39Z" style="fill:url(#linear-gradient-21)"/><path d="M43.86,59.49C41,54.71,39,42,39,41.85a1,1,0,0,0-2,.3c.08.54,2.07,13.25,5.13,18.36l.29.49h2.32Z" style="fill:#34160f"/><path d="M20.3,61l.28-.19C26.37,56.68,27.93,45.6,28,45.13a1,1,0,0,0-2-.26c0,.1-1.51,10.69-6.59,14.32A17.1,17.1,0,0,1,14.71,61Z" style="fill:#34160f"/></g></svg>